<svg width="38.500000" height="31.516846" viewBox="0 0 38.5 31.5168" fill="none" xmlns="http://www.w3.org/2000/svg" xmlns:xlink="http://www.w3.org/1999/xlink">
	<desc>
			Created with Pixso.
	</desc>
	<defs/>
	<path id="path" d="M26.17 14.06L26.17 14.08C25.83 14.33 25.37 14.26 25.12 13.93C24.87 13.59 24.94 13.13 25.28 12.88L25.3 12.88L26.17 14.06ZM12.32 18.36L12.33 18.33C12.66 18.08 13.12 18.15 13.37 18.49C13.62 18.83 13.55 19.29 13.22 19.54L13.19 19.53L12.32 18.36Z" fill="#000000" fill-opacity="0" fill-rule="nonzero"/>
	<path id="path" d="M25.72 13.48L29.42 10.75L37.75 16.21L37.75 25.3L28.5 30.75L19.25 25.3L19.25 6.21L9.07 0.75L0.75 6.21L0.75 16.21L9.07 21.66L12.77 18.94" stroke="#FFFFFF" stroke-opacity="1.000000" stroke-width="1.500000" stroke-linejoin="round" stroke-linecap="round"/>
</svg>
